<svg xmlns="http://www.w3.org/2000/svg" width="96" height="96" viewBox="0 0 96 96" role="img" aria-labelledby="title desc">
  <title id="title">候选 1 菜品库</title>
  <desc id="desc">打开的菜谱书，中间有餐盘和餐具，代表菜品库。</desc>
  <rect width="96" height="96" fill="none"/>
  <rect x="9" y="14" width="78" height="68" rx="18" fill="#fff8ea" stroke="#74401f" stroke-width="4"/>
  <path d="M48 22v56" stroke="#d7ad60" stroke-width="4" stroke-linecap="round"/>
  <path d="M18 26c12-5 22-5 30 0v50c-8-5-18-5-30 0Z" fill="#fffdf7" stroke="#d7ad60" stroke-width="3" stroke-linejoin="round"/>
  <path d="M78 26c-12-5-22-5-30 0v50c8-5 18-5 30 0Z" fill="#fffdf7" stroke="#d7ad60" stroke-width="3" stroke-linejoin="round"/>
  <circle cx="32" cy="50" r="11" fill="#fffaf1" stroke="#8fac6b" stroke-width="3"/>
  <circle cx="32" cy="50" r="5" fill="#ffd166"/>
  <path d="M61 38v25M68 38v25M68 38l-6 7M68 38l6 7" fill="none" stroke="#74401f" stroke-width="3.5" stroke-linecap="round"/>
  <circle cx="61" cy="36" r="4.3" fill="#fffdf7" stroke="#74401f" stroke-width="2.6"/>
</svg>
