<svg xmlns="http://www.w3.org/2000/svg" width="96" height="96" viewBox="0 0 96 96" role="img" aria-labelledby="title desc">
  <title id="title">候选 2 菜品库</title>
  <desc id="desc">法米狗抱着一本打开的菜谱书，代表菜品库。</desc>
  <rect width="96" height="96" fill="none"/>
  <path d="M30 38c-7-7-7-19 1-24 8-5 18 8 19 21" fill="#eba958" stroke="#74401f" stroke-width="4" stroke-linecap="round"/>
  <path d="M66 38c7-7 7-19-1-24-8-5-18 8-19 21" fill="#eba958" stroke="#74401f" stroke-width="4" stroke-linecap="round"/>
  <circle cx="48" cy="39" r="23" fill="#fffaf1" stroke="#74401f" stroke-width="4"/>
  <circle cx="40" cy="39" r="3.2" fill="#5b2b14"/>
  <circle cx="56" cy="39" r="3.2" fill="#5b2b14"/>
  <ellipse cx="48" cy="49" rx="5" ry="3.7" fill="#5b2b14"/>
  <path d="M15 58c13-7 25-6 33 2 8-8 20-9 33-2v25c-13-7-25-6-33 2-8-8-20-9-33-2Z" fill="#fffdf7" stroke="#d7ad60" stroke-width="4" stroke-linejoin="round"/>
  <path d="M48 60v24M26 69h12M58 69h12" stroke="#8fac6b" stroke-width="3" stroke-linecap="round"/>
</svg>
