<svg xmlns="http://www.w3.org/2000/svg" width="96" height="96" viewBox="0 0 96 96" role="img" aria-labelledby="title desc">
  <title id="title">候选 2 排餐</title>
  <desc id="desc">法米狗探出头看三餐日历，代表排餐。</desc>
  <rect width="96" height="96" fill="none"/>
  <rect x="16" y="24" width="64" height="58" rx="15" fill="#fffdf7" stroke="#74401f" stroke-width="4"/>
  <path d="M16 40h64" stroke="#d7ad60" stroke-width="4" stroke-linecap="round"/>
  <path d="M33 18v13M63 18v13" stroke="#8fac6b" stroke-width="5" stroke-linecap="round"/>
  <path d="M32 36c-7-6-8-18 0-23 8-4 17 8 18 20" fill="#eba958" stroke="#74401f" stroke-width="3.4" stroke-linecap="round"/>
  <path d="M64 36c7-6 8-18 0-23-8-4-17 8-18 20" fill="#eba958" stroke="#74401f" stroke-width="3.4" stroke-linecap="round"/>
  <path d="M33 34c6-11 24-11 30 0" fill="#fffaf1" stroke="#74401f" stroke-width="3.4" stroke-linecap="round"/>
  <circle cx="42" cy="35" r="2.6" fill="#5b2b14"/>
  <circle cx="54" cy="35" r="2.6" fill="#5b2b14"/>
  <circle cx="32" cy="58" r="7" fill="#ffd166"/>
  <circle cx="48" cy="64" r="7" fill="#f28f7c"/>
  <circle cx="64" cy="58" r="7" fill="#8fac6b"/>
</svg>
