<svg xmlns="http://www.w3.org/2000/svg" width="96" height="96" viewBox="0 0 96 96" role="img" aria-labelledby="title desc">
  <title id="title">候选 2 采购</title>
  <desc id="desc">法米狗从采购篮后面探头，篮子里有蔬菜，代表采购。</desc>
  <rect width="96" height="96" fill="none"/>
  <path d="M29 40c-7-7-7-18 1-23 8-4 17 7 18 20" fill="#eba958" stroke="#74401f" stroke-width="4" stroke-linecap="round"/>
  <path d="M67 40c7-7 7-18-1-23-8-4-17 7-18 20" fill="#eba958" stroke="#74401f" stroke-width="4" stroke-linecap="round"/>
  <circle cx="48" cy="40" r="22" fill="#fffaf1" stroke="#74401f" stroke-width="4"/>
  <circle cx="40" cy="40" r="3" fill="#5b2b14"/>
  <circle cx="56" cy="40" r="3" fill="#5b2b14"/>
  <path d="M48 49c-3 5-10 5-13 0M48 49c3 5 10 5 13 0" fill="none" stroke="#5b2b14" stroke-width="3" stroke-linecap="round"/>
  <path d="M17 54h62l-8 29H25Z" fill="#fff8ea" stroke="#74401f" stroke-width="4" stroke-linejoin="round"/>
  <path d="M30 54c4-14 10-21 18-21s14 7 18 21" fill="none" stroke="#8fac6b" stroke-width="5" stroke-linecap="round"/>
  <circle cx="68" cy="43" r="6.5" fill="#f28f7c"/>
  <path d="M26 66h43M29 75h35" stroke="#d7ad60" stroke-width="4" stroke-linecap="round"/>
</svg>
