<svg xmlns="http://www.w3.org/2000/svg" width="520" height="260" viewBox="0 0 520 260" role="img" aria-labelledby="title desc">
  <title id="title">空菜品库插画</title>
  <desc id="desc">浅色空餐盘和待添加食材的插画。</desc>
  <defs>
    <linearGradient id="bg" x1="0" y1="0" x2="1" y2="1">
      <stop offset="0" stop-color="#fffaf1"/>
      <stop offset="1" stop-color="#f2fbf2"/>
    </linearGradient>
    <filter id="shadow" x="-20%" y="-40%" width="140%" height="180%">
      <feDropShadow dx="0" dy="10" stdDeviation="12" flood-color="#4b3a28" flood-opacity="0.1"/>
    </filter>
  </defs>
  <rect width="520" height="260" rx="28" fill="url(#bg)"/>
  <circle cx="420" cy="62" r="84" fill="#ffe5d9" opacity="0.5"/>
  <circle cx="105" cy="204" r="78" fill="#e4f2dc" opacity="0.55"/>
  <ellipse cx="260" cy="162" rx="152" ry="42" fill="#e6d9c7" opacity="0.35"/>
  <ellipse cx="256" cy="130" rx="120" ry="62" fill="#fff6e8" stroke="#d9b775" stroke-width="7" filter="url(#shadow)"/>
  <ellipse cx="256" cy="130" rx="72" ry="31" fill="#fffdf6" stroke="#ead7b4" stroke-width="4"/>
  <path d="M168 72c-18-20 16-34 3-55M204 65c-13-18 15-29 4-48" fill="none" stroke="#c64b35" stroke-width="7" stroke-linecap="round" opacity="0.35"/>
  <path d="M347 102c29-14 52-8 69 18-32 7-56 1-69-18Z" fill="#dff2dc" stroke="#78a064" stroke-width="5"/>
  <path d="M350 102c20 4 39 10 56 18" fill="none" stroke="#78a064" stroke-width="3" stroke-linecap="round"/>
  <circle cx="148" cy="145" r="17" fill="#f2c15f" stroke="#c89b43" stroke-width="4"/>
  <circle cx="383" cy="164" r="14" fill="#df6b4d" stroke="#b94b35" stroke-width="4"/>
</svg>
