<svg xmlns="http://www.w3.org/2000/svg" width="520" height="260" viewBox="0 0 520 260" role="img" aria-labelledby="title desc">
  <title id="title">空排餐插画</title>
  <desc id="desc">浅色菜单夹、餐盖和日历标记的插画。</desc>
  <defs>
    <linearGradient id="bg" x1="0" y1="0" x2="1" y2="1">
      <stop offset="0" stop-color="#f4fbff"/>
      <stop offset="1" stop-color="#fff7ea"/>
    </linearGradient>
    <filter id="shadow" x="-20%" y="-40%" width="140%" height="180%">
      <feDropShadow dx="0" dy="10" stdDeviation="12" flood-color="#263b45" flood-opacity="0.1"/>
    </filter>
  </defs>
  <rect width="520" height="260" rx="28" fill="url(#bg)"/>
  <circle cx="90" cy="66" r="76" fill="#dff2ff" opacity="0.58"/>
  <circle cx="430" cy="202" r="90" fill="#ffe1d1" opacity="0.5"/>
  <rect x="154" y="52" width="212" height="148" rx="24" fill="#fffdf6" stroke="#d9b775" stroke-width="7" filter="url(#shadow)"/>
  <path d="M190 92h140M190 124h112M190 156h82" stroke="#ccb58e" stroke-width="8" stroke-linecap="round"/>
  <circle cx="342" cy="78" r="29" fill="#fff2e8" stroke="#c64b35" stroke-width="6"/>
  <path d="M331 79l8 8 16-19" fill="none" stroke="#78a064" stroke-width="7" stroke-linecap="round" stroke-linejoin="round"/>
  <path d="M243 212h72" stroke="#4a7894" stroke-width="8" stroke-linecap="round"/>
  <path d="M251 208c2-24 19-40 39-40 19 0 36 16 39 40" fill="none" stroke="#4a7894" stroke-width="8" stroke-linecap="round"/>
  <path d="M290 165v-10" stroke="#c89b43" stroke-width="7" stroke-linecap="round"/>
</svg>
