<svg xmlns="http://www.w3.org/2000/svg" width="420" height="132" viewBox="0 0 420 132" role="img" aria-labelledby="title desc">
  <title id="title">法米狗私厨 logo 候选 4</title>
  <desc id="desc">浅杏金与青绿色调的长方形法米狗私厨品牌标识，带筷子与叶片图形和柔和渐变边缘。</desc>
  <defs>
    <linearGradient id="panel" x1="0" y1="0" x2="1" y2="1">
      <stop offset="0" stop-color="#fff8e7"/>
      <stop offset="0.5" stop-color="#f7fff3"/>
      <stop offset="1" stop-color="#f7f5f1"/>
    </linearGradient>
    <radialGradient id="halo" cx="49%" cy="50%" r="65%">
      <stop offset="0" stop-color="#ffefbf" stop-opacity="0.76"/>
      <stop offset="0.68" stop-color="#edf7e9" stop-opacity="0.54"/>
      <stop offset="1" stop-color="#f7f5f1" stop-opacity="0"/>
    </radialGradient>
    <filter id="soft" x="-20%" y="-40%" width="140%" height="180%">
      <feGaussianBlur stdDeviation="12"/>
    </filter>
    <filter id="shadow" x="-15%" y="-35%" width="130%" height="170%">
      <feDropShadow dx="0" dy="8" stdDeviation="10" flood-color="#3c3b1e" flood-opacity="0.1"/>
    </filter>
  </defs>
  <rect width="420" height="132" fill="none"/>
  <rect x="8" y="8" width="404" height="116" rx="36" fill="url(#halo)" filter="url(#soft)"/>
  <rect x="20" y="20" width="380" height="92" rx="26" fill="url(#panel)" opacity="0.95" filter="url(#shadow)"/>
  <path d="M76 32v60M91 35v57" fill="none" stroke="#4d5f35" stroke-width="5" stroke-linecap="round"/>
  <path d="M56 79c25-37 60-34 82-8-29 4-55 13-82 8Z" fill="#edf8e8" stroke="#86a96f" stroke-width="2"/>
  <path d="M62 78c20-6 42-8 65-7" fill="none" stroke="#c6922f" stroke-width="2" stroke-linecap="round" opacity="0.82"/>
  <circle cx="83" cy="65" r="34" fill="none" stroke="#d9bd6a" stroke-width="1.5" opacity="0.58"/>
  <text x="145" y="62" fill="#28261b" font-family="'Songti SC','STSong','Noto Serif CJK SC',serif" font-size="34" font-weight="700" letter-spacing="2">法米狗私厨</text>
  <text x="147" y="86" fill="#68715d" font-family="'Avenir Next','Helvetica Neue',Arial,sans-serif" font-size="11" font-weight="600" letter-spacing="3">FAMILY TABLE STUDIO</text>
  <path d="M145 95h176" stroke="#d9bd6a" stroke-width="2" stroke-linecap="round" opacity="0.58"/>
</svg>
