<svg xmlns="http://www.w3.org/2000/svg" width="420" height="132" viewBox="0 0 420 132" role="img" aria-labelledby="title desc">
  <title id="title">私家御膳房 logo 候选 3</title>
  <desc id="desc">浅瓷蓝色调的长方形私家御膳房品牌标识，带热汤碗图形和柔和渐变边缘。</desc>
  <defs>
    <linearGradient id="panel" x1="0" y1="0" x2="1" y2="1">
      <stop offset="0" stop-color="#f4fbff"/>
      <stop offset="0.52" stop-color="#fffdf5"/>
      <stop offset="1" stop-color="#f7f5f1"/>
    </linearGradient>
    <radialGradient id="halo" cx="51%" cy="50%" r="66%">
      <stop offset="0" stop-color="#dff2ff" stop-opacity="0.84"/>
      <stop offset="0.63" stop-color="#f5fbff" stop-opacity="0.58"/>
      <stop offset="1" stop-color="#f7f5f1" stop-opacity="0"/>
    </radialGradient>
    <filter id="soft" x="-20%" y="-40%" width="140%" height="180%">
      <feGaussianBlur stdDeviation="12"/>
    </filter>
    <filter id="shadow" x="-15%" y="-35%" width="130%" height="170%">
      <feDropShadow dx="0" dy="8" stdDeviation="10" flood-color="#18394b" flood-opacity="0.1"/>
    </filter>
  </defs>
  <rect width="420" height="132" fill="none"/>
  <rect x="8" y="10" width="404" height="112" rx="34" fill="url(#halo)" filter="url(#soft)"/>
  <rect x="20" y="20" width="380" height="92" rx="30" fill="url(#panel)" opacity="0.95" filter="url(#shadow)"/>
  <path d="M43 81c7 16 67 16 74 0Z" fill="#eef8ff" stroke="#376b8f" stroke-width="4" stroke-linejoin="round"/>
  <path d="M52 76h56" fill="none" stroke="#376b8f" stroke-width="5" stroke-linecap="round"/>
  <path d="M66 58c-8-11 10-16 2-27M83 58c-8-11 10-16 2-27M100 58c-8-11 10-16 2-27" fill="none" stroke="#d4a84d" stroke-width="3" stroke-linecap="round" opacity="0.78"/>
  <path d="M52 88h56" fill="none" stroke="#d4a84d" stroke-width="2" stroke-linecap="round"/>
  <text x="140" y="62" fill="#1f2c33" font-family="'Songti SC','STSong','Noto Serif CJK SC',serif" font-size="34" font-weight="700" letter-spacing="2">私家御膳房</text>
  <text x="142" y="86" fill="#59717f" font-family="'Avenir Next','Helvetica Neue',Arial,sans-serif" font-size="11" font-weight="600" letter-spacing="3">HOME MENU ATELIER</text>
  <path d="M140 96c43-8 96-8 159 0" fill="none" stroke="#accfe5" stroke-width="2" stroke-linecap="round" opacity="0.72"/>
</svg>
