<svg xmlns="http://www.w3.org/2000/svg" width="420" height="132" viewBox="0 0 420 132" role="img" aria-labelledby="title desc">
  <title id="title">私家御膳房 logo 候选 5</title>
  <desc id="desc">浅墨米色调的长方形私家御膳房品牌标识，带庭院窗格和餐盘图形，边缘柔和渐变。</desc>
  <defs>
    <linearGradient id="panel" x1="0" y1="0" x2="1" y2="1">
      <stop offset="0" stop-color="#fffdf8"/>
      <stop offset="0.5" stop-color="#f7f5f1"/>
      <stop offset="1" stop-color="#f4fbf4"/>
    </linearGradient>
    <radialGradient id="halo" cx="50%" cy="50%" r="66%">
      <stop offset="0" stop-color="#f1eadf" stop-opacity="0.9"/>
      <stop offset="0.66" stop-color="#f8f3ec" stop-opacity="0.55"/>
      <stop offset="1" stop-color="#f7f5f1" stop-opacity="0"/>
    </radialGradient>
    <filter id="soft" x="-20%" y="-40%" width="140%" height="180%">
      <feGaussianBlur stdDeviation="12"/>
    </filter>
    <filter id="shadow" x="-15%" y="-35%" width="130%" height="170%">
      <feDropShadow dx="0" dy="8" stdDeviation="10" flood-color="#27241f" flood-opacity="0.11"/>
    </filter>
  </defs>
  <rect width="420" height="132" fill="none"/>
  <rect x="8" y="8" width="404" height="116" rx="36" fill="url(#halo)" filter="url(#soft)"/>
  <rect x="20" y="20" width="380" height="92" rx="28" fill="url(#panel)" opacity="0.96" filter="url(#shadow)"/>
  <rect x="49" y="34" width="64" height="64" rx="20" fill="#faf7ef" stroke="#6f6861" stroke-width="2"/>
  <path d="M65 42v48M97 42v48M57 58h48M57 74h48" stroke="#6f6861" stroke-width="2" opacity="0.56"/>
  <circle cx="81" cy="66" r="17" fill="#f2f7ed" stroke="#9ba97f" stroke-width="2"/>
  <path d="M71 65c8-7 17-7 25 0" fill="none" stroke="#c69d43" stroke-width="2.4" stroke-linecap="round"/>
  <text x="140" y="62" fill="#27241f" font-family="'Songti SC','STSong','Noto Serif CJK SC',serif" font-size="34" font-weight="700" letter-spacing="2">私家御膳房</text>
  <text x="142" y="86" fill="#706b63" font-family="'Avenir Next','Helvetica Neue',Arial,sans-serif" font-size="11" font-weight="600" letter-spacing="3">PRIVATE DINING ROOM</text>
  <path d="M338 40c11 12 17 27 16 44" fill="none" stroke="#9ba97f" stroke-width="2" stroke-linecap="round" opacity="0.62"/>
  <path d="M348 39c10 12 14 27 13 43" fill="none" stroke="#c69d43" stroke-width="1.5" stroke-linecap="round" opacity="0.5"/>
</svg>
