<svg xmlns="http://www.w3.org/2000/svg" width="420" height="132" viewBox="0 0 420 132" role="img" aria-labelledby="title desc">
  <title id="title">法米狗私厨 v1.4 logo 候选 1</title>
  <desc id="desc">厨师小狗头像与法米狗私厨文字的横向品牌标识。</desc>
  <defs>
    <linearGradient id="panel" x1="14" y1="14" x2="406" y2="118" gradientUnits="userSpaceOnUse">
      <stop offset="0" stop-color="#fffdf7"/>
      <stop offset="0.58" stop-color="#fff6df"/>
      <stop offset="1" stop-color="#fff0ea"/>
    </linearGradient>
    <filter id="shadow" x="-12%" y="-35%" width="124%" height="170%">
      <feDropShadow dx="0" dy="8" stdDeviation="9" flood-color="#8a4b2f" flood-opacity="0.11"/>
    </filter>
  </defs>
  <rect width="420" height="132" fill="none"/>
  <rect x="14" y="14" width="392" height="104" rx="28" fill="url(#panel)" filter="url(#shadow)"/>
  <rect x="32" y="26" width="88" height="80" rx="22" fill="#fffefa" stroke="#efd7bd" stroke-width="2"/>
  <path d="M54 42c0-10 9-18 22-18s22 8 22 18" fill="#fffefa" stroke="#7b4a25" stroke-width="4" stroke-linecap="round"/>
  <circle cx="57" cy="58" r="15" fill="#e9a65a" stroke="#7b4a25" stroke-width="4"/>
  <circle cx="95" cy="58" r="15" fill="#e9a65a" stroke="#7b4a25" stroke-width="4"/>
  <circle cx="76" cy="62" r="28" fill="#fff2dc" stroke="#7b4a25" stroke-width="4"/>
  <circle cx="66" cy="61" r="2.8" fill="#4a2a18"/>
  <circle cx="86" cy="61" r="2.8" fill="#4a2a18"/>
  <path d="M72 70c2.5 2.5 5.5 2.5 8 0" fill="none" stroke="#4a2a18" stroke-width="3" stroke-linecap="round"/>
  <path d="M62 86h28" stroke="#d69d36" stroke-width="5" stroke-linecap="round"/>
  <text x="270" y="69" text-anchor="middle" fill="#5c3420" font-family="'Kaiti SC','STKaiti','Songti SC','STSong','Noto Serif CJK SC',serif" font-size="34" font-weight="800" letter-spacing="0.8">法米狗私厨</text>
  <text x="270" y="96" text-anchor="middle" fill="#a06f5a" font-family="'Avenir Next','Helvetica Neue',Arial,sans-serif" font-size="11.2" font-weight="800" letter-spacing="1.25">FAMIGO PRIVATE KITCHEN</text>
</svg>
