<svg xmlns="http://www.w3.org/2000/svg" width="420" height="132" viewBox="0 0 420 132" role="img" aria-labelledby="title desc">
  <title id="title">法米狗私厨 v1.4 logo 候选 6</title>
  <desc id="desc">汤锅小狗与法米狗私厨文字的横向品牌标识。</desc>
  <defs>
    <linearGradient id="panel" x1="14" y1="14" x2="406" y2="118" gradientUnits="userSpaceOnUse">
      <stop offset="0" stop-color="#fffdf8"/>
      <stop offset="0.58" stop-color="#fff5e2"/>
      <stop offset="1" stop-color="#fff2df"/>
    </linearGradient>
    <filter id="shadow" x="-12%" y="-35%" width="124%" height="170%">
      <feDropShadow dx="0" dy="8" stdDeviation="9" flood-color="#8a4b2f" flood-opacity="0.11"/>
    </filter>
  </defs>
  <rect width="420" height="132" fill="none"/>
  <rect x="14" y="14" width="392" height="104" rx="28" fill="url(#panel)" filter="url(#shadow)"/>
  <rect x="32" y="26" width="88" height="80" rx="22" fill="#fffefa" stroke="#efd7bd" stroke-width="2"/>
  <path d="M49 58h54v20c0 9-7 16-16 16H65c-9 0-16-7-16-16Z" fill="#fff7df" stroke="#7b4a25" stroke-width="4"/>
  <path d="M44 58h64" stroke="#7b4a25" stroke-width="5" stroke-linecap="round"/>
  <path d="M58 48c2-10 34-10 36 0" fill="none" stroke="#d59b34" stroke-width="4" stroke-linecap="round"/>
  <path d="M60 39c-4-5 4-8 1-13M76 39c-4-5 4-8 1-13M92 39c-4-5 4-8 1-13" fill="none" stroke="#d86f45" stroke-width="3" stroke-linecap="round"/>
  <circle cx="69" cy="70" r="2.4" fill="#4a2a18"/>
  <circle cx="83" cy="70" r="2.4" fill="#4a2a18"/>
  <path d="M72 78c3 2 5 2 8 0" fill="none" stroke="#4a2a18" stroke-width="3" stroke-linecap="round"/>
  <text x="270" y="69" text-anchor="middle" fill="#5b351f" font-family="'Baoli SC','STKaiti','Kaiti SC','Songti SC',serif" font-size="34" font-weight="800" letter-spacing="0.65">法米狗私厨</text>
  <text x="270" y="96" text-anchor="middle" fill="#a06f5a" font-family="'Avenir Next','Helvetica Neue',Arial,sans-serif" font-size="11.2" font-weight="800" letter-spacing="1.25">FAMIGO PRIVATE KITCHEN</text>
</svg>
