<svg xmlns="http://www.w3.org/2000/svg" width="420" height="132" viewBox="0 0 420 132" role="img" aria-labelledby="title desc">
  <title id="title">法米狗私厨 v1.4 logo 候选 10</title>
  <desc id="desc">饭碗小狗与法米狗私厨文字的横向品牌标识。</desc>
  <defs>
    <linearGradient id="panel" x1="14" y1="14" x2="406" y2="118" gradientUnits="userSpaceOnUse">
      <stop offset="0" stop-color="#fffefa"/>
      <stop offset="0.58" stop-color="#fff5e2"/>
      <stop offset="1" stop-color="#fff4e7"/>
    </linearGradient>
    <filter id="shadow" x="-12%" y="-35%" width="124%" height="170%">
      <feDropShadow dx="0" dy="8" stdDeviation="9" flood-color="#8a4b2f" flood-opacity="0.11"/>
    </filter>
  </defs>
  <rect width="420" height="132" fill="none"/>
  <rect x="14" y="14" width="392" height="104" rx="28" fill="url(#panel)" filter="url(#shadow)"/>
  <rect x="32" y="26" width="88" height="80" rx="22" fill="#fffefa" stroke="#ead7bd" stroke-width="2"/>
  <path d="M52 58c4-17 44-17 48 0" fill="#fffefa" stroke="#7b6448" stroke-width="4"/>
  <path d="M48 62h56l-6 24H54Z" fill="#ffeab6" stroke="#7b6448" stroke-width="4" stroke-linejoin="round"/>
  <path d="M60 52c-6-8-2-16 8-18 5 6 3 13-2 18" fill="#d9a15b" stroke="#7b6448" stroke-width="3" stroke-linejoin="round"/>
  <path d="M92 52c6-8 2-16-8-18-5 6-3 13 2 18" fill="#d9a15b" stroke="#7b6448" stroke-width="3" stroke-linejoin="round"/>
  <circle cx="68" cy="61" r="2.4" fill="#4a2a18"/>
  <circle cx="84" cy="61" r="2.4" fill="#4a2a18"/>
  <path d="M72 69c3 2.5 5 2.5 8 0" fill="none" stroke="#4a2a18" stroke-width="3" stroke-linecap="round"/>
  <path d="M59 91h34" stroke="#d49a21" stroke-width="4" stroke-linecap="round"/>
  <text x="270" y="69" text-anchor="middle" fill="#5c3420" font-family="'Libian SC','Songti SC','STSong','Kaiti SC',serif" font-size="34" font-weight="900" letter-spacing="0.6">法米狗私厨</text>
  <text x="270" y="96" text-anchor="middle" fill="#a06f5a" font-family="'Avenir Next','Helvetica Neue',Arial,sans-serif" font-size="11.2" font-weight="800" letter-spacing="1.25">FAMIGO PRIVATE KITCHEN</text>
</svg>
