<svg xmlns="http://www.w3.org/2000/svg" width="420" height="132" viewBox="0 0 420 132" role="img" aria-labelledby="title desc">
  <title id="title">法米狗私厨 v1.4 logo 候选 5</title>
  <desc id="desc">围裙小狗与法米狗私厨文字的横向品牌标识。</desc>
  <defs>
    <linearGradient id="panel" x1="14" y1="14" x2="406" y2="118" gradientUnits="userSpaceOnUse">
      <stop offset="0" stop-color="#fffefa"/>
      <stop offset="0.58" stop-color="#fff8e7"/>
      <stop offset="1" stop-color="#fff0ea"/>
    </linearGradient>
    <filter id="shadow" x="-12%" y="-35%" width="124%" height="170%">
      <feDropShadow dx="0" dy="8" stdDeviation="9" flood-color="#8a4b2f" flood-opacity="0.11"/>
    </filter>
  </defs>
  <rect width="420" height="132" fill="none"/>
  <rect x="14" y="14" width="392" height="104" rx="28" fill="url(#panel)" filter="url(#shadow)"/>
  <rect x="32" y="26" width="88" height="80" rx="22" fill="#fffefa" stroke="#ead7bd" stroke-width="2"/>
  <circle cx="76" cy="48" r="21" fill="#ffe1b2" stroke="#7b4a25" stroke-width="4"/>
  <path d="M55 41c-6-9-3-18 7-20 5 6 4 14-1 20" fill="#d99247" stroke="#7b4a25" stroke-width="4" stroke-linejoin="round"/>
  <path d="M91 41c6-9 3-18-7-20-5 6-4 14 1 20" fill="#d99247" stroke="#7b4a25" stroke-width="4" stroke-linejoin="round"/>
  <circle cx="68" cy="48" r="2.8" fill="#4a2a18"/>
  <circle cx="84" cy="48" r="2.8" fill="#4a2a18"/>
  <path d="M71 57c3 2.5 7 2.5 10 0" fill="none" stroke="#4a2a18" stroke-width="3" stroke-linecap="round"/>
  <path d="M57 72h38l6 20H51Z" fill="#fff4e7" stroke="#b8675a" stroke-width="4" stroke-linejoin="round"/>
  <path d="M69 82h14" stroke="#d59b34" stroke-width="4" stroke-linecap="round"/>
  <text x="270" y="69" text-anchor="middle" fill="#5c3420" font-family="'Yuanti SC','PingFang SC','Hiragino Sans GB','Microsoft YaHei',sans-serif" font-size="34" font-weight="900" letter-spacing="0.55">法米狗私厨</text>
  <text x="270" y="96" text-anchor="middle" fill="#a06f5a" font-family="'Avenir Next','Helvetica Neue',Arial,sans-serif" font-size="11.2" font-weight="800" letter-spacing="1.25">FAMIGO PRIVATE KITCHEN</text>
</svg>
