<svg xmlns="http://www.w3.org/2000/svg" width="512" height="512" viewBox="0 0 512 512" role="img" aria-labelledby="title desc">
  <title id="title">早餐默认菜品图</title>
  <desc id="desc">浅色餐桌上的早餐粥碗、鸡蛋与热茶插画。</desc>
  <defs>
    <linearGradient id="bg" x1="0" y1="0" x2="1" y2="1">
      <stop offset="0" stop-color="#fff8e8"/>
      <stop offset="1" stop-color="#f2fbf2"/>
    </linearGradient>
    <filter id="shadow" x="-20%" y="-20%" width="140%" height="140%">
      <feDropShadow dx="0" dy="12" stdDeviation="14" flood-color="#6e5224" flood-opacity="0.14"/>
    </filter>
  </defs>
  <rect width="512" height="512" fill="url(#bg)"/>
  <circle cx="390" cy="86" r="112" fill="#ffe4c7" opacity="0.38"/>
  <circle cx="112" cy="418" r="126" fill="#dff2dc" opacity="0.42"/>
  <ellipse cx="256" cy="292" rx="162" ry="72" fill="#dfcda9" opacity="0.36"/>
  <ellipse cx="244" cy="252" rx="122" ry="88" fill="#fff3df" stroke="#d6aa63" stroke-width="8" filter="url(#shadow)"/>
  <ellipse cx="244" cy="240" rx="86" ry="46" fill="#fffaf0" stroke="#f0d9a7" stroke-width="5"/>
  <circle cx="211" cy="236" r="8" fill="#d9b775"/>
  <circle cx="243" cy="253" r="7" fill="#d9b775"/>
  <circle cx="281" cy="232" r="8" fill="#d9b775"/>
  <path d="M152 326c34 22 149 25 190 0" fill="none" stroke="#9f3428" stroke-width="9" stroke-linecap="round" opacity="0.58"/>
  <ellipse cx="360" cy="198" rx="48" ry="34" fill="#fff2e8" stroke="#d9b775" stroke-width="5"/>
  <circle cx="360" cy="198" r="18" fill="#f6be4f"/>
  <path d="M138 178c-16-23 18-35 4-58M178 166c-13-22 16-32 5-52" fill="none" stroke="#c64b35" stroke-width="8" stroke-linecap="round" opacity="0.48"/>
  <path d="M340 316c34-18 54-50 55-89" fill="none" stroke="#78a064" stroke-width="8" stroke-linecap="round"/>
  <path d="M386 247c30 3 50 16 61 39-31 2-53-11-61-39Z" fill="#dff2dc" stroke="#78a064" stroke-width="5"/>
</svg>
