<svg xmlns="http://www.w3.org/2000/svg" width="512" height="512" viewBox="0 0 512 512" role="img" aria-labelledby="title desc">
  <title id="title">晚餐默认菜品图</title>
  <desc id="desc">浅蓝米色背景中的汤盅、青菜和温暖灯光插画。</desc>
  <defs>
    <linearGradient id="bg" x1="0" y1="0" x2="1" y2="1">
      <stop offset="0" stop-color="#f2fbff"/>
      <stop offset="1" stop-color="#fff7ea"/>
    </linearGradient>
    <filter id="shadow" x="-20%" y="-20%" width="140%" height="140%">
      <feDropShadow dx="0" dy="12" stdDeviation="14" flood-color="#213b48" flood-opacity="0.12"/>
    </filter>
  </defs>
  <rect width="512" height="512" fill="url(#bg)"/>
  <circle cx="99" cy="98" r="122" fill="#e1f3ff" opacity="0.72"/>
  <circle cx="395" cy="402" r="136" fill="#ffe9c7" opacity="0.46"/>
  <ellipse cx="256" cy="314" rx="156" ry="60" fill="#cbddea" opacity="0.36"/>
  <path d="M153 215h206l-22 104c-8 35-154 35-162 0Z" fill="#f6fbff" stroke="#4a7894" stroke-width="8" filter="url(#shadow)"/>
  <path d="M173 215c22-42 144-42 166 0" fill="none" stroke="#4a7894" stroke-width="8" stroke-linecap="round"/>
  <path d="M208 183c-14-20 17-30 5-50M256 178c-14-20 17-30 5-50M304 183c-14-20 17-30 5-50" fill="none" stroke="#c89b43" stroke-width="7" stroke-linecap="round" opacity="0.62"/>
  <path d="M201 266c32-25 79-28 116-6-37 39-82 42-116 6Z" fill="#dff2dc" stroke="#78a064" stroke-width="5"/>
  <circle cx="224" cy="294" r="8" fill="#c89b43" opacity="0.75"/>
  <circle cx="267" cy="283" r="7" fill="#c89b43" opacity="0.75"/>
  <path d="M173 337c46 22 124 22 166 0" fill="none" stroke="#d7a65f" stroke-width="7" stroke-linecap="round" opacity="0.76"/>
</svg>
