<svg xmlns="http://www.w3.org/2000/svg" width="512" height="512" viewBox="0 0 512 512" role="img" aria-labelledby="title desc">
  <title id="title">午餐默认菜品图</title>
  <desc id="desc">浅色餐盘中的米饭、蔬菜和番茄插画。</desc>
  <defs>
    <linearGradient id="bg" x1="0" y1="0" x2="1" y2="1">
      <stop offset="0" stop-color="#fff7f0"/>
      <stop offset="1" stop-color="#f8fff2"/>
    </linearGradient>
    <filter id="shadow" x="-20%" y="-20%" width="140%" height="140%">
      <feDropShadow dx="0" dy="12" stdDeviation="14" flood-color="#5b3c28" flood-opacity="0.14"/>
    </filter>
  </defs>
  <rect width="512" height="512" fill="url(#bg)"/>
  <circle cx="412" cy="104" r="120" fill="#ffe1d2" opacity="0.42"/>
  <circle cx="88" cy="388" r="126" fill="#e8f3df" opacity="0.52"/>
  <circle cx="256" cy="256" r="154" fill="#fff2de" stroke="#e0bd83" stroke-width="8" filter="url(#shadow)"/>
  <circle cx="256" cy="256" r="115" fill="#fffaf1" stroke="#f1dcc0" stroke-width="5"/>
  <path d="M198 205c38-30 93-24 124 11-24 23-95 34-124-11Z" fill="#fff7e3" stroke="#d8bc81" stroke-width="4"/>
  <circle cx="230" cy="230" r="7" fill="#ddc184"/>
  <circle cx="268" cy="214" r="6" fill="#ddc184"/>
  <circle cx="295" cy="241" r="6" fill="#ddc184"/>
  <path d="M174 286c24-36 67-52 122-48-9 42-53 66-122 48Z" fill="#a5c46a" stroke="#73934d" stroke-width="5"/>
  <path d="M205 320c34-13 77-12 124 4-38 34-84 35-124-4Z" fill="#dfeecb" stroke="#87a96b" stroke-width="5"/>
  <circle cx="333" cy="292" r="26" fill="#df6b4d" stroke="#b94b35" stroke-width="5"/>
  <circle cx="370" cy="253" r="21" fill="#e97b5a" stroke="#b94b35" stroke-width="5"/>
  <path d="M336 272l-7-12M365 233l-8-11" stroke="#73a250" stroke-width="5" stroke-linecap="round"/>
</svg>
