<svg xmlns="http://www.w3.org/2000/svg" width="512" height="512" viewBox="0 0 512 512" role="img" aria-labelledby="title desc">
  <title id="title">小零嘴默认图</title>
  <desc id="desc">浅粉米色背景中的点心盘、果子和茶杯插画。</desc>
  <defs>
    <linearGradient id="bg" x1="0" y1="0" x2="1" y2="1">
      <stop offset="0" stop-color="#fff2f6"/>
      <stop offset="1" stop-color="#fff9e7"/>
    </linearGradient>
    <filter id="shadow" x="-20%" y="-20%" width="140%" height="140%">
      <feDropShadow dx="0" dy="12" stdDeviation="14" flood-color="#6b3442" flood-opacity="0.12"/>
    </filter>
  </defs>
  <rect width="512" height="512" fill="url(#bg)"/>
  <circle cx="404" cy="102" r="116" fill="#ffe0e9" opacity="0.58"/>
  <circle cx="92" cy="406" r="126" fill="#fff0bc" opacity="0.42"/>
  <ellipse cx="256" cy="309" rx="154" ry="62" fill="#e4c7d1" opacity="0.28"/>
  <ellipse cx="248" cy="279" rx="132" ry="82" fill="#fff5ec" stroke="#d7a65f" stroke-width="7" filter="url(#shadow)"/>
  <circle cx="196" cy="270" r="35" fill="#f4c0cc" stroke="#c86b80" stroke-width="6"/>
  <circle cx="258" cy="248" r="32" fill="#f8d46e" stroke="#c89b43" stroke-width="6"/>
  <circle cx="309" cy="289" r="36" fill="#dff2dc" stroke="#78a064" stroke-width="6"/>
  <path d="M185 265c18-10 33-10 49 0M247 243c15-8 29-8 43 0M297 286c18-10 36-10 54 0" fill="none" stroke="#fff9ef" stroke-width="6" stroke-linecap="round" opacity="0.8"/>
  <path d="M353 193h46c2 38-9 60-31 66-25-8-36-30-15-66Z" fill="#fff8ef" stroke="#c89b43" stroke-width="6"/>
  <path d="M397 207c28 5 27 42-4 42" fill="none" stroke="#c89b43" stroke-width="6" stroke-linecap="round"/>
</svg>
