<svg xmlns="http://www.w3.org/2000/svg" width="420" height="132" viewBox="0 0 420 132" role="img" aria-labelledby="title desc">
  <title id="title">法米狗私厨大 logo 候选 3</title>
  <desc id="desc">浅绿餐桌风横向招牌，法米狗坐在餐碗里，文字更圆润可爱。</desc>
  <defs>
    <linearGradient id="panel" x1="18" y1="18" x2="398" y2="116" gradientUnits="userSpaceOnUse">
      <stop offset="0" stop-color="#f8fff3"/>
      <stop offset="0.48" stop-color="#fff9e9"/>
      <stop offset="1" stop-color="#eff8ef"/>
    </linearGradient>
    <linearGradient id="bowl" x1="44" y1="94" x2="140" y2="94" gradientUnits="userSpaceOnUse">
      <stop offset="0" stop-color="#a9be78"/>
      <stop offset="1" stop-color="#d8e9b4"/>
    </linearGradient>
    <filter id="shadow" x="-12%" y="-34%" width="124%" height="172%">
      <feDropShadow dx="0" dy="8" stdDeviation="9" flood-color="#3e4a28" flood-opacity="0.12"/>
    </filter>
  </defs>
  <rect width="420" height="132" fill="none"/>
  <rect x="14" y="14" width="392" height="104" rx="32" fill="url(#panel)" filter="url(#shadow)"/>
  <g transform="translate(34 19)">
    <circle cx="20" cy="28" r="14" fill="#fff0eb" opacity="0.78"/>
    <circle cx="113" cy="79" r="20" fill="#eff7e8" opacity="0.9"/>
    <path d="M23 76c9 20 26 30 50 31 24-1 42-11 51-31" fill="url(#bowl)"/>
    <path d="M19 75c18 10 90 10 108 0" fill="#fffef8" stroke="#7e704f" stroke-width="4" stroke-linecap="round"/>
    <path d="M37 51c-10-9-13-30 1-41 14-11 34 3 34 3s20-14 34-4c14 10 10 31 0 42" fill="#fffdf4" stroke="#70401f" stroke-width="4" stroke-linejoin="round"/>
    <path d="M39 17c-17 12-20 38-6 46 13 7 24-5 26-25" fill="#edae58" stroke="#70401f" stroke-width="4" stroke-linecap="round"/>
    <path d="M104 17c17 12 20 38 6 46-13 7-24-5-26-25" fill="#edae58" stroke="#70401f" stroke-width="4" stroke-linecap="round"/>
    <path d="M64 10c6-9 18-12 23-4 5 8-2 16-11 20" fill="#fffdf4" stroke="#70401f" stroke-width="4" stroke-linecap="round"/>
    <ellipse cx="57" cy="44" rx="4.6" ry="3.4" fill="#65321a" transform="rotate(-10 57 44)"/>
    <ellipse cx="86" cy="44" rx="4.6" ry="3.4" fill="#65321a" transform="rotate(10 86 44)"/>
    <ellipse cx="72" cy="57" rx="7" ry="5.2" fill="#54260f"/>
    <path d="M72 62c-3 6-11 7-15 1M72 62c3 6 11 7 15 1" fill="none" stroke="#54260f" stroke-width="3" stroke-linecap="round"/>
    <path d="M65 76c7 7 15 7 22 0" fill="none" stroke="#f08372" stroke-width="5" stroke-linecap="round"/>
    <path d="M33 71c-5-7-12-10-20-9M111 71c5-7 12-10 20-9" fill="none" stroke="#70401f" stroke-width="4" stroke-linecap="round"/>
  </g>
  <text x="179" y="55" fill="#36512b" font-family="'PingFang SC','Hiragino Sans GB','Microsoft YaHei',sans-serif" font-size="30" font-weight="900" letter-spacing="1">法米狗私厨</text>
  <text x="181" y="80" fill="#7a7656" font-family="'Avenir Next','Helvetica Neue',Arial,sans-serif" font-size="10.5" font-weight="800" letter-spacing="2.2">FAMILY MEALS WITH LOVE</text>
  <path d="M181 92c30 6 77 6 115 0" fill="none" stroke="#ffd066" stroke-width="4" stroke-linecap="round" opacity="0.9"/>
  <g transform="translate(327 57)" opacity="0.82">
    <ellipse cx="8" cy="17" rx="7" ry="11" fill="#8fb06b" transform="rotate(-38 8 17)"/>
    <ellipse cx="32" cy="17" rx="7" ry="11" fill="#8fb06b" transform="rotate(38 32 17)"/>
    <circle cx="20" cy="8" r="5" fill="#ff8b78"/>
  </g>
</svg>
