<svg xmlns="http://www.w3.org/2000/svg" width="720" height="1480" viewBox="0 0 720 1480" role="img" aria-labelledby="title desc">
  <title id="title">法米狗整页简笔背景候选 1</title>
  <desc id="desc">透明底简笔风背景，中间偏下是一只小狗坐在餐碗后，周围有浅色爪印。</desc>
  <defs>
    <radialGradient id="glow" cx="50%" cy="70%" r="42%">
      <stop offset="0" stop-color="#fff1d8" stop-opacity="0.72"/>
      <stop offset="0.62" stop-color="#fff8eb" stop-opacity="0.28"/>
      <stop offset="1" stop-color="#fff8eb" stop-opacity="0"/>
    </radialGradient>
    <g id="paw">
      <ellipse cx="0" cy="13" rx="13" ry="17"/>
      <circle cx="-19" cy="0" r="8"/>
      <circle cx="0" cy="-9" r="8"/>
      <circle cx="19" cy="0" r="8"/>
    </g>
  </defs>
  <rect width="720" height="1480" fill="none"/>
  <circle cx="360" cy="980" r="405" fill="url(#glow)"/>
  <g opacity="0.07" fill="#d7ad60">
    <use href="#paw" x="97" y="742" transform="rotate(-22 97 742)"/>
    <use href="#paw" x="629" y="820" transform="rotate(20 629 820)"/>
    <use href="#paw" x="129" y="1240" transform="rotate(18 129 1240)"/>
    <use href="#paw" x="584" y="1290" transform="rotate(-18 584 1290)"/>
  </g>
  <g transform="translate(138 695)" fill="none" stroke-linecap="round" stroke-linejoin="round" opacity="0.18">
    <ellipse cx="222" cy="437" rx="194" ry="58" fill="#f8f4e9" stroke="none" opacity="0.62"/>
    <path d="M82 332c28-58 82-86 140-86s112 28 140 86" stroke="#7a4324" stroke-width="11"/>
    <path d="M104 282c-52 25-65 104-20 132 44 27 86-27 91-88" stroke="#e9ad5d" stroke-width="28"/>
    <path d="M340 282c52 25 65 104 20 132-44 27-86-27-91-88" stroke="#e9ad5d" stroke-width="28"/>
    <path d="M187 259c17-32 55-37 69-13 15 25-16 47-48 54" stroke="#7a4324" stroke-width="11"/>
    <path d="M181 342h.1M263 342h.1" stroke="#5b2a14" stroke-width="16"/>
    <path d="M221 374c-11 23-39 24-53 3M222 374c11 23 39 24 53 3" stroke="#5b2a14" stroke-width="9"/>
    <path d="M221 361h2" stroke="#5b2a14" stroke-width="19"/>
    <path d="M76 485c88 39 204 39 292 0" stroke="#96ad69" stroke-width="20"/>
    <path d="M56 468c102 35 232 35 332 0" stroke="#d8b160" stroke-width="12"/>
    <path d="M110 454c-16-31-5-58 30-78M333 454c16-31 5-58-30-78" stroke="#ef9a82" stroke-width="8" opacity="0.68"/>
  </g>
  <path d="M520 1070c32-21 72-21 104 0" fill="none" stroke="#8faf6c" stroke-width="8" stroke-linecap="round" opacity="0.1"/>
</svg>
