<svg xmlns="http://www.w3.org/2000/svg" width="640" height="72" viewBox="0 0 640 72" role="img" aria-labelledby="title desc">
  <title id="title">法米狗标语横幅候选 2</title>
  <desc id="desc">浅绿饭桌风薄横幅，含餐碗、叶子和幸福就是一起吃饭，吃好多好多顿饭的艺术字。</desc>
  <defs>
    <linearGradient id="panel" x1="16" y1="10" x2="624" y2="62" gradientUnits="userSpaceOnUse">
      <stop offset="0" stop-color="#f9fff2"/>
      <stop offset="0.48" stop-color="#fffaf0"/>
      <stop offset="1" stop-color="#eef8ef"/>
    </linearGradient>
    <filter id="shadow" x="-8%" y="-60%" width="116%" height="220%">
      <feDropShadow dx="0" dy="5" stdDeviation="7" flood-color="#46532d" flood-opacity="0.08"/>
    </filter>
  </defs>
  <rect x="13" y="9" width="614" height="54" rx="17" fill="url(#panel)" filter="url(#shadow)"/>
  <path d="M43 41c12 6 34 6 46 0" fill="none" stroke="#d9b366" stroke-width="4" stroke-linecap="round"/>
  <path d="M52 38c-3-10 2-17 12-20M75 38c3-10-2-17-12-20" fill="none" stroke="#f3a88b" stroke-width="3" stroke-linecap="round" opacity="0.75"/>
  <text x="320" y="44" text-anchor="middle" fill="#37522c" stroke="#fff8e7" stroke-width="2.3" paint-order="stroke fill" font-family="'Songti SC','STSong','Noto Serif CJK SC',serif" font-size="22" font-weight="900" letter-spacing="1.2">幸福就是一起吃饭，吃好多好多顿饭</text>
  <g transform="translate(565 26)" opacity="0.82">
    <ellipse cx="9" cy="10" rx="6" ry="12" fill="#8fb06b" transform="rotate(-42 9 10)"/>
    <ellipse cx="31" cy="10" rx="6" ry="12" fill="#8fb06b" transform="rotate(42 31 10)"/>
    <circle cx="20" cy="23" r="5" fill="#ffd166"/>
  </g>
</svg>
