<svg xmlns="http://www.w3.org/2000/svg" width="96" height="96" viewBox="0 0 96 96" role="img" aria-labelledby="title desc">
  <title id="title">法米狗菜品库图标</title>
  <desc id="desc">小狗趴在打开的食谱本后面，代表菜品库。</desc>
  <defs>
    <filter id="shadow" x="-20%" y="-20%" width="140%" height="150%">
      <feDropShadow dx="0" dy="3" stdDeviation="3" flood-color="#5c351d" flood-opacity="0.16"/>
    </filter>
  </defs>
  <rect width="96" height="96" fill="none"/>
  <g filter="url(#shadow)">
    <circle cx="48" cy="39" r="26" fill="#fffaf1" stroke="#74401f" stroke-width="4"/>
    <path d="M25 35c-8-8-8-22 0-27 9-5 21 9 22 23" fill="#eba958" stroke="#74401f" stroke-width="4" stroke-linecap="round"/>
    <path d="M71 35c8-8 8-22 0-27-9-5-21 9-22 23" fill="#eba958" stroke="#74401f" stroke-width="4" stroke-linecap="round"/>
    <path d="M39 23c6-9 17-10 21-2 4 7-4 14-13 17" fill="#fffaf1" stroke="#74401f" stroke-width="4" stroke-linecap="round"/>
    <circle cx="39" cy="39" r="3.5" fill="#5b2b14"/>
    <circle cx="57" cy="39" r="3.5" fill="#5b2b14"/>
    <ellipse cx="48" cy="49" rx="5.8" ry="4.2" fill="#5b2b14"/>
    <path d="M48 53c-3 6-11 6-14 0M48 53c3 6 11 6 14 0" fill="none" stroke="#5b2b14" stroke-width="3" stroke-linecap="round"/>
    <path d="M14 58c16-8 28-7 34 2 6-9 19-10 34-2v25c-15-8-28-7-34 2-6-9-19-10-34-2Z" fill="#fffdf8" stroke="#d7ad60" stroke-width="4" stroke-linejoin="round"/>
    <path d="M48 60v25M24 68h15M57 68h15M24 76h13M57 76h13" fill="none" stroke="#8fac6b" stroke-width="3" stroke-linecap="round"/>
  </g>
</svg>
