<svg xmlns="http://www.w3.org/2000/svg" width="96" height="96" viewBox="0 0 96 96" role="img" aria-labelledby="title desc">
  <title id="title">法米狗排餐图标</title>
  <desc id="desc">小狗和每日排餐日历，代表安排早餐午餐晚餐。</desc>
  <defs>
    <filter id="shadow" x="-20%" y="-20%" width="140%" height="150%">
      <feDropShadow dx="0" dy="3" stdDeviation="3" flood-color="#5c351d" flood-opacity="0.16"/>
    </filter>
  </defs>
  <rect width="96" height="96" fill="none"/>
  <g filter="url(#shadow)">
    <rect x="18" y="24" width="60" height="58" rx="14" fill="#fffdf7" stroke="#74401f" stroke-width="4"/>
    <path d="M18 39h60" stroke="#d7ad60" stroke-width="4" stroke-linecap="round"/>
    <path d="M34 18v13M62 18v13" stroke="#8fac6b" stroke-width="5" stroke-linecap="round"/>
    <circle cx="36" cy="55" r="5" fill="#ffd166"/>
    <circle cx="48" cy="55" r="5" fill="#f28f7c"/>
    <circle cx="60" cy="55" r="5" fill="#8fac6b"/>
    <path d="M34 69c8 4 20 4 28 0" fill="none" stroke="#d7ad60" stroke-width="4" stroke-linecap="round"/>
    <path d="M31 31c-6-6-6-17 1-21 7-4 15 7 16 17" fill="#eba958" stroke="#74401f" stroke-width="3.4" stroke-linecap="round"/>
    <path d="M65 31c6-6 6-17-1-21-7-4-15 7-16 17" fill="#eba958" stroke="#74401f" stroke-width="3.4" stroke-linecap="round"/>
    <path d="M35 28c5-11 21-11 26 0" fill="#fffaf1" stroke="#74401f" stroke-width="3.4" stroke-linecap="round"/>
    <circle cx="42" cy="29" r="2.5" fill="#5b2b14"/>
    <circle cx="54" cy="29" r="2.5" fill="#5b2b14"/>
    <path d="M48 33c-2 4-8 4-10 0M48 33c2 4 8 4 10 0" fill="none" stroke="#5b2b14" stroke-width="2.5" stroke-linecap="round"/>
  </g>
</svg>
